<svg xmlns="http://www.w3.org/2000/svg" viewBox="0 0 200 200">
  <rect width="200" height="200" fill="#fff"/>
  <circle cx="100" cy="100" r="90" fill="#003399"/>
  <circle cx="100" cy="52" r="13" fill="white"/>
  <rect x="93" y="64" width="14" height="11" fill="white"/>
  <path d="M62,75 L55,148 L100,155 L145,148 L138,75 L120,68 L100,75 L80,68Z" fill="white"/>
  <path d="M80,68 L100,90 L120,68 L100,75Z" fill="#003399"/>
  <rect x="57" y="105" width="86" height="10" fill="#FFDD00"/>
  <rect x="57" y="122" width="86" height="10" fill="#FFDD00"/>
  <path d="M62,75 L40,102 L50,108 L70,85Z" fill="white"/>
  <path d="M138,75 L160,102 L150,108 L130,85Z" fill="white"/>
</svg>
